<svg xmlns="http://www.w3.org/2000/svg" viewBox="0 0 1200 750" width="1200" height="750">
    
  <rect width="1200" height="750" fill="#ffffff"/>
  <rect x="0" y="0" width="1200" height="56" fill="#fafafa"/>
  <line x1="0" y1="56" x2="1200" y2="56" stroke="#e5e5e5" stroke-width="1"/>
  <circle cx="28" cy="28" r="6" fill="#ff5f57"/>
  <circle cx="48" cy="28" r="6" fill="#febc2e"/>
  <circle cx="68" cy="28" r="6" fill="#28c840"/>
  <text x="600" y="33" text-anchor="middle" font-family="Helvetica, Arial, sans-serif" font-size="14" fill="#8a8a8e">HR Analytics Dashboard — Power BI — Detail View</text>
  
    <rect x="40" y="84" width="1120" height="280" rx="14" fill="#ffffff" stroke="#e5e5e5" stroke-width="1.5"/>
    <text x="64" y="118" font-family="Helvetica, Arial, sans-serif" font-size="14" font-weight="600" fill="#0a0a0a">Monthly comparison</text>
    <g><rect x="64.0" y="180.6" width="82.0" height="159.4" rx="4" fill="#0071e3" opacity="0.35"/><rect x="154.0" y="243.5" width="82.0" height="96.5" rx="4" fill="#0071e3" opacity="0.3958333333333333"/><rect x="244.0" y="195.6" width="82.0" height="144.4" rx="4" fill="#0071e3" opacity="0.44166666666666665"/><rect x="334.0" y="184.1" width="82.0" height="155.9" rx="4" fill="#0071e3" opacity="0.4875"/><rect x="424.0" y="304.2" width="82.0" height="35.8" rx="4" fill="#0071e3" opacity="0.5333333333333333"/><rect x="514.0" y="148.9" width="82.0" height="191.1" rx="4" fill="#0071e3" opacity="0.5791666666666666"/><rect x="604.0" y="178.4" width="82.0" height="161.6" rx="4" fill="#0071e3" opacity="0.625"/><rect x="694.0" y="155.2" width="82.0" height="184.8" rx="4" fill="#0071e3" opacity="0.6708333333333334"/><rect x="784.0" y="278.7" width="82.0" height="61.3" rx="4" fill="#0071e3" opacity="0.7166666666666667"/><rect x="874.0" y="265.9" width="82.0" height="74.1" rx="4" fill="#0071e3" opacity="0.7625"/><rect x="964.0" y="250.9" width="82.0" height="89.1" rx="4" fill="#0071e3" opacity="0.8083333333333333"/><rect x="1054.0" y="159.5" width="82.0" height="180.5" rx="4" fill="#0071e3" opacity="0.8541666666666666"/><line x1="64" y1="340" x2="1136" y2="340" stroke="#e5e5e5" stroke-width="1"/></g>
    <rect x="40" y="384" width="1120" height="320" rx="14" fill="#ffffff" stroke="#e5e5e5" stroke-width="1.5"/>
    <text x="64" y="418" font-family="Helvetica, Arial, sans-serif" font-size="14" font-weight="600" fill="#0a0a0a">Detail table</text>
    <rect x="64" y="436" width="1072" height="238" rx="10" fill="#ffffff" stroke="#e5e5e5" stroke-width="1.5"/><rect x="64" y="436" width="1072" height="34" fill="#fafafa"/><line x1="64" y1="470" x2="1136" y2="470" stroke="#e5e5e5"/><rect x="84" y="482" width="70" height="10" rx="3" fill="#e5e5e5"/><rect x="757.361464334705" y="480" width="358.6" height="14" rx="4" fill="#0071e3" opacity="0.55"/><line x1="64" y1="504" x2="1136" y2="504" stroke="#e5e5e5"/><rect x="84" y="516" width="70" height="10" rx="3" fill="#e5e5e5"/><rect x="1044.4920781893004" y="514" width="71.5" height="14" rx="4" fill="#0071e3" opacity="0.55"/><line x1="64" y1="538" x2="1136" y2="538" stroke="#e5e5e5"/><rect x="84" y="550" width="70" height="10" rx="3" fill="#e5e5e5"/><rect x="972.7315397805213" y="548" width="143.3" height="14" rx="4" fill="#0071e3" opacity="0.55"/><line x1="64" y1="572" x2="1136" y2="572" stroke="#e5e5e5"/><rect x="84" y="584" width="70" height="10" rx="3" fill="#e5e5e5"/><rect x="1008.7637997256516" y="582" width="107.2" height="14" rx="4" fill="#0071e3" opacity="0.55"/><line x1="64" y1="606" x2="1136" y2="606" stroke="#e5e5e5"/><rect x="84" y="618" width="70" height="10" rx="3" fill="#e5e5e5"/><rect x="716.0135493827161" y="616" width="400.0" height="14" rx="4" fill="#0071e3" opacity="0.55"/><line x1="64" y1="640" x2="1136" y2="640" stroke="#e5e5e5"/><rect x="84" y="652" width="70" height="10" rx="3" fill="#e5e5e5"/><rect x="1047.535109739369" y="650" width="68.5" height="14" rx="4" fill="#0071e3" opacity="0.55"/>
  </svg>