<svg xmlns="http://www.w3.org/2000/svg" viewBox="0 0 1200 750" width="1200" height="750">
    
  <rect width="1200" height="750" fill="#ffffff"/>
  <rect x="0" y="0" width="1200" height="56" fill="#fafafa"/>
  <line x1="0" y1="56" x2="1200" y2="56" stroke="#e5e5e5" stroke-width="1"/>
  <circle cx="28" cy="28" r="6" fill="#ff5f57"/>
  <circle cx="48" cy="28" r="6" fill="#febc2e"/>
  <circle cx="68" cy="28" r="6" fill="#28c840"/>
  <text x="600" y="33" text-anchor="middle" font-family="Helvetica, Arial, sans-serif" font-size="14" fill="#8a8a8e">Data Quality Report</text>
  
    <rect x="40" y="84" width="1120" height="620" rx="14" fill="#ffffff" stroke="#e5e5e5" stroke-width="1.5"/>
    <text x="64" y="120" font-family="Helvetica, Arial, sans-serif" font-size="16" font-weight="700" fill="#0a0a0a">Data Quality Report</text>
    <rect x="64" y="148" width="1072" height="374" rx="10" fill="#ffffff" stroke="#e5e5e5" stroke-width="1.5"/><rect x="64" y="148" width="1072" height="34" fill="#fafafa"/><line x1="64" y1="182" x2="1136" y2="182" stroke="#e5e5e5"/><rect x="84" y="194" width="70" height="10" rx="3" fill="#e5e5e5"/><rect x="834.5872359396434" y="192" width="281.4" height="14" rx="4" fill="#0071e3" opacity="0.55"/><line x1="64" y1="216" x2="1136" y2="216" stroke="#e5e5e5"/><rect x="84" y="228" width="70" height="10" rx="3" fill="#e5e5e5"/><rect x="813.3937757201646" y="226" width="302.6" height="14" rx="4" fill="#0071e3" opacity="0.55"/><line x1="64" y1="250" x2="1136" y2="250" stroke="#e5e5e5"/><rect x="84" y="262" width="70" height="10" rx="3" fill="#e5e5e5"/><rect x="1048.2202743484224" y="260" width="67.8" height="14" rx="4" fill="#0071e3" opacity="0.55"/><line x1="64" y1="284" x2="1136" y2="284" stroke="#e5e5e5"/><rect x="84" y="296" width="70" height="10" rx="3" fill="#e5e5e5"/><rect x="755.0840157750342" y="294" width="360.9" height="14" rx="4" fill="#0071e3" opacity="0.55"/><line x1="64" y1="318" x2="1136" y2="318" stroke="#e5e5e5"/><rect x="84" y="330" width="70" height="10" rx="3" fill="#e5e5e5"/><rect x="873.143024691358" y="328" width="242.9" height="14" rx="4" fill="#0071e3" opacity="0.55"/><line x1="64" y1="352" x2="1136" y2="352" stroke="#e5e5e5"/><rect x="84" y="364" width="70" height="10" rx="3" fill="#e5e5e5"/><rect x="729.5849554183814" y="362" width="386.4" height="14" rx="4" fill="#0071e3" opacity="0.55"/><line x1="64" y1="386" x2="1136" y2="386" stroke="#e5e5e5"/><rect x="84" y="398" width="70" height="10" rx="3" fill="#e5e5e5"/><rect x="832.782647462277" y="396" width="283.2" height="14" rx="4" fill="#0071e3" opacity="0.55"/><line x1="64" y1="420" x2="1136" y2="420" stroke="#e5e5e5"/><rect x="84" y="432" width="70" height="10" rx="3" fill="#e5e5e5"/><rect x="912.9163477366255" y="430" width="203.1" height="14" rx="4" fill="#0071e3" opacity="0.55"/><line x1="64" y1="454" x2="1136" y2="454" stroke="#e5e5e5"/><rect x="84" y="466" width="70" height="10" rx="3" fill="#e5e5e5"/><rect x="714.0625994513032" y="464" width="401.9" height="14" rx="4" fill="#0071e3" opacity="0.55"/><line x1="64" y1="488" x2="1136" y2="488" stroke="#e5e5e5"/><rect x="84" y="500" width="70" height="10" rx="3" fill="#e5e5e5"/><rect x="911.3497976680385" y="498" width="204.7" height="14" rx="4" fill="#0071e3" opacity="0.55"/>
  </svg>