<svg xmlns="http://www.w3.org/2000/svg" viewBox="0 0 1200 750" width="1200" height="750">
    
  <rect width="1200" height="750" fill="#ffffff"/>
  <rect x="0" y="0" width="1200" height="56" fill="#fafafa"/>
  <line x1="0" y1="56" x2="1200" y2="56" stroke="#e5e5e5" stroke-width="1"/>
  <circle cx="28" cy="28" r="6" fill="#ff5f57"/>
  <circle cx="48" cy="28" r="6" fill="#febc2e"/>
  <circle cx="68" cy="28" r="6" fill="#28c840"/>
  <text x="600" y="33" text-anchor="middle" font-family="Helvetica, Arial, sans-serif" font-size="14" fill="#8a8a8e">Sales Performance Dashboard — Power BI — Detail View</text>
  
    <rect x="40" y="84" width="1120" height="280" rx="14" fill="#ffffff" stroke="#e5e5e5" stroke-width="1.5"/>
    <text x="64" y="118" font-family="Helvetica, Arial, sans-serif" font-size="14" font-weight="600" fill="#0a0a0a">Monthly comparison</text>
    <g><rect x="64.0" y="202.2" width="82.0" height="137.8" rx="4" fill="#0071e3" opacity="0.35"/><rect x="154.0" y="174.8" width="82.0" height="165.2" rx="4" fill="#0071e3" opacity="0.3958333333333333"/><rect x="244.0" y="283.3" width="82.0" height="56.7" rx="4" fill="#0071e3" opacity="0.44166666666666665"/><rect x="334.0" y="231.6" width="82.0" height="108.4" rx="4" fill="#0071e3" opacity="0.4875"/><rect x="424.0" y="160.3" width="82.0" height="179.7" rx="4" fill="#0071e3" opacity="0.5333333333333333"/><rect x="514.0" y="255.9" width="82.0" height="84.1" rx="4" fill="#0071e3" opacity="0.5791666666666666"/><rect x="604.0" y="241.8" width="82.0" height="98.2" rx="4" fill="#0071e3" opacity="0.625"/><rect x="694.0" y="160.9" width="82.0" height="179.1" rx="4" fill="#0071e3" opacity="0.6708333333333334"/><rect x="784.0" y="160.5" width="82.0" height="179.5" rx="4" fill="#0071e3" opacity="0.7166666666666667"/><rect x="874.0" y="159.6" width="82.0" height="180.4" rx="4" fill="#0071e3" opacity="0.7625"/><rect x="964.0" y="279.3" width="82.0" height="60.7" rx="4" fill="#0071e3" opacity="0.8083333333333333"/><rect x="1054.0" y="275.7" width="82.0" height="64.3" rx="4" fill="#0071e3" opacity="0.8541666666666666"/><line x1="64" y1="340" x2="1136" y2="340" stroke="#e5e5e5" stroke-width="1"/></g>
    <rect x="40" y="384" width="1120" height="320" rx="14" fill="#ffffff" stroke="#e5e5e5" stroke-width="1.5"/>
    <text x="64" y="418" font-family="Helvetica, Arial, sans-serif" font-size="14" font-weight="600" fill="#0a0a0a">Detail table</text>
    <rect x="64" y="436" width="1072" height="238" rx="10" fill="#ffffff" stroke="#e5e5e5" stroke-width="1.5"/><rect x="64" y="436" width="1072" height="34" fill="#fafafa"/><line x1="64" y1="470" x2="1136" y2="470" stroke="#e5e5e5"/><rect x="84" y="482" width="70" height="10" rx="3" fill="#e5e5e5"/><rect x="803.4540637860082" y="480" width="312.5" height="14" rx="4" fill="#0071e3" opacity="0.55"/><line x1="64" y1="504" x2="1136" y2="504" stroke="#e5e5e5"/><rect x="84" y="516" width="70" height="10" rx="3" fill="#e5e5e5"/><rect x="898.1595747599451" y="514" width="217.8" height="14" rx="4" fill="#0071e3" opacity="0.55"/><line x1="64" y1="538" x2="1136" y2="538" stroke="#e5e5e5"/><rect x="84" y="550" width="70" height="10" rx="3" fill="#e5e5e5"/><rect x="784.5171433470507" y="548" width="331.5" height="14" rx="4" fill="#0071e3" opacity="0.55"/><line x1="64" y1="572" x2="1136" y2="572" stroke="#e5e5e5"/><rect x="84" y="584" width="70" height="10" rx="3" fill="#e5e5e5"/><rect x="734.6625720164609" y="582" width="381.3" height="14" rx="4" fill="#0071e3" opacity="0.55"/><line x1="64" y1="606" x2="1136" y2="606" stroke="#e5e5e5"/><rect x="84" y="618" width="70" height="10" rx="3" fill="#e5e5e5"/><rect x="784.4946262002743" y="616" width="331.5" height="14" rx="4" fill="#0071e3" opacity="0.55"/><line x1="64" y1="640" x2="1136" y2="640" stroke="#e5e5e5"/><rect x="84" y="652" width="70" height="10" rx="3" fill="#e5e5e5"/><rect x="900.4305898491084" y="650" width="215.6" height="14" rx="4" fill="#0071e3" opacity="0.55"/>
  </svg>