<svg xmlns="http://www.w3.org/2000/svg" viewBox="0 0 1200 750" width="1200" height="750">
    
  <rect width="1200" height="750" fill="#ffffff"/>
  <rect x="0" y="0" width="1200" height="56" fill="#fafafa"/>
  <line x1="0" y1="56" x2="1200" y2="56" stroke="#e5e5e5" stroke-width="1"/>
  <circle cx="28" cy="28" r="6" fill="#ff5f57"/>
  <circle cx="48" cy="28" r="6" fill="#febc2e"/>
  <circle cx="68" cy="28" r="6" fill="#28c840"/>
  <text x="600" y="33" text-anchor="middle" font-family="Helvetica, Arial, sans-serif" font-size="14" fill="#8a8a8e">Query Library — Business Views</text>
  
    <rect x="40" y="84" width="1120" height="620" rx="14" fill="#ffffff" stroke="#e5e5e5" stroke-width="1.5"/>
    <text x="64" y="120" font-family="Helvetica, Arial, sans-serif" font-size="16" font-weight="700" fill="#0a0a0a">Reusable View Library</text>
    <rect x="64" y="148" width="1072" height="374" rx="10" fill="#ffffff" stroke="#e5e5e5" stroke-width="1.5"/><rect x="64" y="148" width="1072" height="34" fill="#fafafa"/><line x1="64" y1="182" x2="1136" y2="182" stroke="#e5e5e5"/><rect x="84" y="194" width="70" height="10" rx="3" fill="#e5e5e5"/><rect x="880.6798353909464" y="192" width="235.3" height="14" rx="4" fill="#0071e3" opacity="0.55"/><line x1="64" y1="216" x2="1136" y2="216" stroke="#e5e5e5"/><rect x="84" y="228" width="70" height="10" rx="3" fill="#e5e5e5"/><rect x="1042.2612722908093" y="226" width="73.7" height="14" rx="4" fill="#0071e3" opacity="0.55"/><line x1="64" y1="250" x2="1136" y2="250" stroke="#e5e5e5"/><rect x="84" y="262" width="70" height="10" rx="3" fill="#e5e5e5"/><rect x="860.005877914952" y="260" width="256.0" height="14" rx="4" fill="#0071e3" opacity="0.55"/><line x1="64" y1="284" x2="1136" y2="284" stroke="#e5e5e5"/><rect x="84" y="296" width="70" height="10" rx="3" fill="#e5e5e5"/><rect x="856.1827880658436" y="294" width="259.8" height="14" rx="4" fill="#0071e3" opacity="0.55"/><line x1="64" y1="318" x2="1136" y2="318" stroke="#e5e5e5"/><rect x="84" y="330" width="70" height="10" rx="3" fill="#e5e5e5"/><rect x="941.6241015089163" y="328" width="174.4" height="14" rx="4" fill="#0071e3" opacity="0.55"/><line x1="64" y1="352" x2="1136" y2="352" stroke="#e5e5e5"/><rect x="84" y="364" width="70" height="10" rx="3" fill="#e5e5e5"/><rect x="957.6804355281207" y="362" width="158.3" height="14" rx="4" fill="#0071e3" opacity="0.55"/><line x1="64" y1="386" x2="1136" y2="386" stroke="#e5e5e5"/><rect x="84" y="398" width="70" height="10" rx="3" fill="#e5e5e5"/><rect x="968.0431481481481" y="396" width="148.0" height="14" rx="4" fill="#0071e3" opacity="0.55"/><line x1="64" y1="420" x2="1136" y2="420" stroke="#e5e5e5"/><rect x="84" y="432" width="70" height="10" rx="3" fill="#e5e5e5"/><rect x="925.2332270233196" y="430" width="190.8" height="14" rx="4" fill="#0071e3" opacity="0.55"/><line x1="64" y1="454" x2="1136" y2="454" stroke="#e5e5e5"/><rect x="84" y="466" width="70" height="10" rx="3" fill="#e5e5e5"/><rect x="837.3568449931413" y="464" width="278.6" height="14" rx="4" fill="#0071e3" opacity="0.55"/><line x1="64" y1="488" x2="1136" y2="488" stroke="#e5e5e5"/><rect x="84" y="500" width="70" height="10" rx="3" fill="#e5e5e5"/><rect x="1059.9275823045268" y="498" width="56.1" height="14" rx="4" fill="#0071e3" opacity="0.55"/>
  </svg>